<svg width="49" height="42" viewBox="0 0 49 42" fill="none" xmlns="http://www.w3.org/2000/svg">
<path d="M33.8311 0.638672C41.384 0.638672 47.4268 6.74615 47.4268 14.2344V26.8174C47.4268 34.1583 41.7237 40.0684 34.4697 40.3975V32.7852C37.4803 32.4654 39.834 29.9113 39.834 26.8174V14.2344C39.834 10.9248 37.1406 8.23145 33.8311 8.23145C30.5216 8.23161 27.8291 10.9249 27.8291 14.2344V26.8174C27.8291 34.3702 21.7224 40.4128 14.2344 40.4131C6.67939 40.4131 0.638672 34.3724 0.638672 26.8174V14.2344C0.638672 6.95863 6.34292 0.986361 13.5947 0.65332V8.26562C10.5845 8.58575 8.23145 11.1407 8.23145 14.2344V26.8174C8.23145 30.1269 10.9248 32.8193 14.2344 32.8193C17.5437 32.8191 20.2363 30.1268 20.2363 26.8174V14.2344C20.2363 6.74826 26.345 0.638834 33.8311 0.638672Z" fill="#0F151A" stroke="#C9E84C" stroke-width="1.27745"></path>
</svg>