<svg width="98" height="98" viewBox="0 0 98 98" fill="none" xmlns="http://www.w3.org/2000/svg">
<rect width="98" height="98" rx="49" fill="#C9E84C"/>
<path d="M60.506 25.1982C69.3748 25.1984 76.4699 32.3694 76.4699 41.1621V55.9375C76.4699 64.5571 69.7735 71.4961 61.256 71.8828V62.9453C64.7908 62.5695 67.5539 59.5702 67.5539 55.9375V41.1621C67.5539 37.276 64.3921 34.1144 60.506 34.1143C56.6199 34.1143 53.4582 37.276 53.4582 41.1621V55.9375C53.4582 64.8063 46.2871 71.9013 37.4943 71.9014C28.6231 71.9014 21.5305 64.8087 21.5305 55.9375V41.1621C21.5305 32.6186 28.2288 25.6065 36.7443 25.2158V34.1533C33.2093 34.5289 30.4465 37.5292 30.4465 41.1621V55.9375C30.4465 59.8236 33.6082 62.9854 37.4943 62.9854C41.3804 62.9853 44.5422 59.8236 44.5422 55.9375V41.1621C44.5422 32.3717 51.7156 25.1982 60.506 25.1982Z" fill="#4B4BC0" stroke="#C9E84C" stroke-width="1.5"/>
</svg>
