<svg width="317" height="76" viewBox="0 0 317 76" fill="none" xmlns="http://www.w3.org/2000/svg">
<rect width="75.8872" height="75.8872" rx="37.9436" fill="#C9E84C"/>
<path d="M46.8532 19.5129C53.7209 19.513 59.2146 25.0655 59.2146 31.8743V43.3157C59.2146 49.9903 54.0298 55.3638 47.4343 55.6633V48.7415C50.1713 48.4504 52.3112 46.1286 52.3112 43.3157V31.8743C52.3112 28.865 49.8625 26.4163 46.8532 26.4163C43.844 26.4163 41.3953 28.865 41.3952 31.8743V43.3157C41.3952 50.1833 35.8427 55.678 29.0339 55.678C22.1644 55.678 16.6726 50.1851 16.6726 43.3157V31.8743C16.6726 25.2587 21.859 19.8284 28.4529 19.5256V26.4475C25.7157 26.7385 23.5759 29.0613 23.5759 31.8743V43.3157C23.5759 46.3249 26.0246 48.7737 29.0339 48.7737C32.0432 48.7737 34.4919 46.3249 34.4919 43.3157V31.8743C34.4919 25.0673 40.0463 19.5129 46.8532 19.5129Z" fill="#4B4BC0" stroke="#C9E84C" stroke-width="1.16154"/>
<path d="M104.204 41.8337C105.574 41.8337 106.689 40.7187 106.689 39.3487C106.689 37.9788 105.574 36.8637 104.204 36.8637H98.3741C94.7103 36.8637 91.7792 33.9008 91.7792 30.2688C91.7792 26.605 94.7103 23.6739 98.3741 23.6739H104.204C107.836 23.6739 110.799 26.605 110.799 30.2688H106.689C106.689 28.8989 105.574 27.7838 104.204 27.7838H98.3741C97.0042 27.7838 95.8891 28.8989 95.8891 30.2688C95.8891 31.6388 97.0042 32.7538 98.3741 32.7538H104.204C107.836 32.7538 110.799 35.7168 110.799 39.3487C110.799 43.0125 107.836 45.9436 104.204 45.9436H98.3741C94.7103 45.9436 91.7792 43.0125 91.7792 39.3487H95.8891C95.8891 40.7187 97.0042 41.8337 98.3741 41.8337H104.204ZM120.784 42.2479L120.625 41.8337L113.361 23.6739H117.789L122.855 36.2902L127.921 23.6739H132.381L125.085 41.8337L124.926 42.2479V45.9436H120.784V42.2479ZM136.498 23.6739V23.6421H140.608V23.6739H141.373L145.993 30.9697L148.446 34.8247L151.409 39.4443V23.6421H155.518V45.9436H150.644L145.993 38.6478L143.571 34.8247L140.608 30.1732V45.9436H136.498V23.6739ZM178.687 42.694C174.322 47.0587 167.281 47.0587 162.917 42.694C158.552 38.3292 158.552 31.2883 162.917 26.9236C167.281 22.5588 174.322 22.5588 178.687 26.9236L175.756 29.8546C173.016 27.0829 168.588 27.0829 165.848 29.8546C163.076 32.5945 163.076 37.023 165.848 39.7629C168.588 42.5347 173.016 42.5347 175.756 39.7629L178.687 42.694ZM186.914 36.1946V45.9436H182.804V23.6421H186.914V23.6739H187.137L192.299 39.3806L197.492 23.6739H197.715V23.6421H201.824V45.9436H197.715V36.1946L194.465 45.9436H190.132L186.914 36.1946ZM211.676 41.8337L210.306 45.9436H205.973L213.301 23.6739H217.634L224.993 45.9436H220.66L219.29 41.8337H211.676ZM215.467 30.2369L213.014 37.692H217.92L215.467 30.2369ZM239.98 41.8337C241.35 41.8337 242.465 40.7187 242.465 39.3487C242.465 37.9788 241.35 36.8637 239.98 36.8637H234.15C230.486 36.8637 227.555 33.9008 227.555 30.2688C227.555 26.605 230.486 23.6739 234.15 23.6739H239.98C243.612 23.6739 246.575 26.605 246.575 30.2688H242.465C242.465 28.8989 241.35 27.7838 239.98 27.7838H234.15C232.78 27.7838 231.665 28.8989 231.665 30.2688C231.665 31.6388 232.78 32.7538 234.15 32.7538H239.98C243.612 32.7538 246.575 35.7168 246.575 39.3487C246.575 43.0125 243.612 45.9436 239.98 45.9436H234.15C230.486 45.9436 227.555 43.0125 227.555 39.3487H231.665C231.665 40.7187 232.78 41.8337 234.15 41.8337H239.98ZM257.556 45.9436V27.7838H250.101V23.6739H269.121V27.7838H261.666V45.9436H257.556ZM277.348 45.9436H273.239V23.6739H292.259V27.7838H277.348V32.7538H288.117V36.8637H277.348V41.8337H292.259V45.9436H277.348ZM296.376 45.9436V41.0054V36.8637V27.7838V23.6739H306.73C311.509 23.6739 315.396 27.5289 315.396 32.3397C315.396 35.3982 313.803 38.1062 311.382 39.6355L315.396 45.9436H310.521L307.336 40.9735C307.144 41.0054 306.921 41.0054 306.73 41.0054H300.486V45.9436H296.376ZM300.486 27.7838V36.8637H306.73C307.622 36.8637 308.482 36.6088 309.183 36.1628C310.426 35.3344 311.286 33.9326 311.286 32.3397C311.286 29.8228 309.247 27.7838 306.73 27.7838H300.486Z" fill="white"/>
</svg>
