<svg width="1520" height="63" viewBox="0 0 1520 63" fill="none" xmlns="http://www.w3.org/2000/svg">
<path d="M0 31.2002C53.3333 -8.7998 106.667 -8.7998 160 31.2002C213.333 71.2002 266.667 71.2002 320 31.2002C373.333 -8.7998 426.667 -8.7998 480 31.2002C533.333 71.2002 586.667 71.2002 640 31.2002C693.333 -8.7998 746.667 -8.7998 800 31.2002C853.333 71.2002 906.667 71.2002 960 31.2002C1013.33 -8.7998 1066.67 -8.7998 1120 31.2002C1173.33 71.2002 1226.67 71.2002 1280 31.2002C1333.33 -8.7998 1386.67 -8.7998 1440 31.2002C1493.33 71.2002 1520 71.2002 1520 31.2002" stroke="#D9F99D" stroke-width="2.4"></path>
</svg>