<svg width="148" height="116" viewBox="0 0 148 116" fill="none" xmlns="http://www.w3.org/2000/svg">
<rect x="39" width="70" height="70" rx="35" fill="#C9E84C"></rect>
<path d="M79.9528 22.2808C84.6734 22.2808 88.4498 26.098 88.4498 30.7778V38.4224C88.4497 43.0932 84.7538 46.8363 80.1032 46.9155V41.8257C81.9127 41.7467 83.3609 40.251 83.361 38.4224V30.7778C83.361 28.8987 81.8319 27.3696 79.9528 27.3696C78.0737 27.3696 76.5446 28.8987 76.5446 30.7778V38.4224C76.5445 43.1429 72.7272 46.9193 68.0475 46.9194C63.3264 46.9194 59.5505 43.1434 59.5504 38.4224V30.7778C59.5504 26.1477 63.2467 22.3636 67.8971 22.2837V27.3726C66.0873 27.4514 64.6393 28.949 64.6393 30.7778V38.4224C64.6394 40.3014 66.1684 41.8306 68.0475 41.8306C69.9264 41.8304 71.4556 40.3013 71.4557 38.4224V30.7778C71.4557 26.0985 75.2734 22.2808 79.9528 22.2808Z" fill="#4B4BC0" stroke="#C9E84C" stroke-width="0.3"></path>
<path d="M8.69743 102.316C9.59214 102.316 10.3204 101.588 10.3204 100.693C10.3204 99.7982 9.59214 99.0699 8.69743 99.0699H4.8897C2.49687 99.0699 0.582603 97.1349 0.582603 94.7628C0.582603 92.37 2.49687 90.4557 4.8897 90.4557H8.69743C11.0695 90.4557 13.0045 92.37 13.0045 94.7628H10.3204C10.3204 93.8681 9.59214 93.1399 8.69743 93.1399H4.8897C3.99499 93.1399 3.26674 93.8681 3.26674 94.7628C3.26674 95.6575 3.99499 96.3858 4.8897 96.3858H8.69743C11.0695 96.3858 13.0045 98.3209 13.0045 100.693C13.0045 103.086 11.0695 105 8.69743 105H4.8897C2.49687 105 0.582603 103.086 0.582603 100.693H3.26674C3.26674 101.588 3.99499 102.316 4.8897 102.316H8.69743ZM19.5257 102.586L19.4217 102.316L14.6776 90.4557H17.5698L20.8782 98.6954L24.1865 90.4557H27.0995L22.3347 102.316L22.2306 102.586V105H19.5257V102.586ZM29.7886 90.4557V90.4349H32.4727V90.4557H32.9721L35.9892 95.2206L37.5913 97.7383L39.5264 100.755V90.4349H42.2105V105H39.027L35.9892 100.235L34.4078 97.7383L32.4727 94.7004V105H29.7886V90.4557ZM57.3418 102.878C54.4913 105.728 49.8929 105.728 47.0423 102.878C44.1917 100.027 44.1917 95.4287 47.0423 92.5781C49.8929 89.7275 54.4913 89.7275 57.3418 92.5781L55.4276 94.4923C53.6382 92.6821 50.746 92.6821 48.9565 94.4923C47.1463 96.2818 47.1463 99.174 48.9565 100.963C50.746 102.774 53.6382 102.774 55.4276 100.963L57.3418 102.878ZM62.715 98.633V105H60.0309V90.4349H62.715V90.4557H62.8607L66.2315 100.714L69.6231 90.4557H69.7687V90.4349H72.4528V105H69.7687V98.633L67.6464 105H64.8166L62.715 98.633ZM78.8867 102.316L77.992 105H75.1622L79.9479 90.4557H82.7777L87.5841 105H84.7544L83.8597 102.316H78.8867ZM81.3628 94.742L79.7606 99.6109H82.9649L81.3628 94.742ZM97.3721 102.316C98.2668 102.316 98.995 101.588 98.995 100.693C98.995 99.7982 98.2668 99.0699 97.3721 99.0699H93.5643C91.1715 99.0699 89.2572 97.1349 89.2572 94.7628C89.2572 92.37 91.1715 90.4557 93.5643 90.4557H97.3721C99.7441 90.4557 101.679 92.37 101.679 94.7628H98.995C98.995 93.8681 98.2668 93.1399 97.3721 93.1399H93.5643C92.6696 93.1399 91.9414 93.8681 91.9414 94.7628C91.9414 95.6575 92.6696 96.3858 93.5643 96.3858H97.3721C99.7441 96.3858 101.679 98.3209 101.679 100.693C101.679 103.086 99.7441 105 97.3721 105H93.5643C91.1715 105 89.2572 103.086 89.2572 100.693H91.9414C91.9414 101.588 92.6696 102.316 93.5643 102.316H97.3721ZM108.851 105V93.1399H103.982V90.4557H116.404V93.1399H111.535V105H108.851ZM121.777 105H119.093V90.4557H131.515V93.1399H121.777V96.3858H128.81V99.0699H121.777V102.316H131.515V105H121.777ZM134.204 105V101.775V99.0699V93.1399V90.4557H140.966C144.088 90.4557 146.626 92.9734 146.626 96.1153C146.626 98.1128 145.586 99.8814 144.004 100.88L146.626 105H143.443L141.362 101.754C141.237 101.775 141.091 101.775 140.966 101.775H136.888V105H134.204ZM136.888 93.1399V99.0699H140.966C141.549 99.0699 142.111 98.9035 142.569 98.6122C143.38 98.0712 143.942 97.1557 143.942 96.1153C143.942 94.4715 142.61 93.1399 140.966 93.1399H136.888Z" fill="white"></path>
</svg>