<svg xmlns="http://www.w3.org/2000/svg" width="24" height="24" viewBox="0 0 24 24" fill="none" stroke="#5252E0" stroke-width="2" stroke-linecap="round" stroke-linejoin="round">
  <path d="m11 17 2 2a1 1 0 1 0 3-3" />
  <path d="m14 14 .5.5a1 1 0 1 0 3-3l-3.88-3.88a3 3 0 0 0-4.24 0l-.88.88a1 1 0 1 1-3-3l2.81-2.81a5.79 5.79 0 0 1 7.06-.83l.47.33a2 2 0 0 0 2.4 0l.47-.33a5.79 5.79 0 0 1 7.06.83l2.81 2.81a1 1 0 1 1-3 3l-.88-.88a3 3 0 0 0-4.24 0L14 14Z" />
  <path d="m2 13 2 2a1 1 0 1 0 3-3l-2-2" />
  <path d="m7 17 2 2a1 1 0 1 0 3-3l-2-2" />
</svg>
