<svg width="1520" height="61" viewBox="0 0 1520 61" fill="none" xmlns="http://www.w3.org/2000/svg">
<path d="M0 30.5C40 -9.5 80 -9.5 120 30.5C160 70.5 200 70.5 240 30.5C280 -9.5 320 -9.5 360 30.5C400 70.5 440 70.5 480 30.5C520 -9.5 560 -9.5 600 30.5C640 70.5 680 70.5 720 30.5C760 -9.5 800 -9.5 840 30.5C880 70.5 920 70.5 960 30.5C1000 -9.5 1040 -9.5 1080 30.5C1120 70.5 1160 70.5 1200 30.5C1240 -9.5 1280 -9.5 1320 30.5C1360 70.5 1400 70.5 1440 30.5C1480 -9.5 1506.67 -9.5 1520 30.5" stroke="#111111" stroke-opacity="0.25098"></path>
</svg>