<svg width="1520" height="62" viewBox="0 0 1520 62" fill="none" xmlns="http://www.w3.org/2000/svg">
<path d="M0 30.75C53.3333 -9.25 106.667 -9.25 160 30.75C213.333 70.75 266.667 70.75 320 30.75C373.333 -9.25 426.667 -9.25 480 30.75C533.333 70.75 586.667 70.75 640 30.75C693.333 -9.25 746.667 -9.25 800 30.75C853.333 70.75 906.667 70.75 960 30.75C1013.33 -9.25 1066.67 -9.25 1120 30.75C1173.33 70.75 1226.67 70.75 1280 30.75C1333.33 -9.25 1386.67 -9.25 1440 30.75C1493.33 70.75 1520 70.75 1520 30.75" stroke="#5252E0" stroke-width="1.5"></path>
</svg>